<svg xmlns="http://www.w3.org/2000/svg" viewBox="0 0 100 100">
  <defs>
    <linearGradient id="leafGrad" x1="0%" y1="0%" x2="100%" y2="100%">
      <stop offset="0%" stop-color="#2e7d32" />
      <stop offset="100%" stop-color="#4caf50" />
    </linearGradient>
  </defs>
  <path d="M 50,10 C 80,10 90,40 90,60 C 90,80 50,90 50,90 C 50,90 10,80 10,60 C 10,40 20,10 50,10 Z" fill="url(#leafGrad)" />
  <path d="M 50,10 L 50,90" stroke="#1b5e20" stroke-width="3" fill="none" opacity="0.6" />
  <path d="M 50,40 C 65,30 75,25 80,25" stroke="#1b5e20" stroke-width="2" fill="none" opacity="0.6" />
  <path d="M 50,55 C 65,45 75,40 80,40" stroke="#1b5e20" stroke-width="2" fill="none" opacity="0.6" />
  <path d="M 50,70 C 60,65 70,60 75,60" stroke="#1b5e20" stroke-width="2" fill="none" opacity="0.6" />
  <path d="M 50,45 C 35,35 25,30 20,30" stroke="#1b5e20" stroke-width="2" fill="none" opacity="0.6" />
  <path d="M 50,60 C 35,50 25,45 20,45" stroke="#1b5e20" stroke-width="2" fill="none" opacity="0.6" />
</svg>